<svg xmlns="http://www.w3.org/2000/svg" width="169" height="71" viewBox="0 0 169 71" fill="none"><path d="M112.141 7.1866e-06C110.66 -0.00166487 109.193 0.288449 107.824 0.853708C106.455 1.41897 105.211 2.24827 104.164 3.29404C103.117 4.3398 102.287 5.58152 101.722 6.94791C101.157 8.3143 100.868 9.77847 100.871 11.2566L100.948 47.1306C100.948 51.5011 99.2075 55.6927 96.1099 58.7831C93.0122 61.8736 88.8109 63.6098 84.4302 63.6098C82.2611 63.6098 80.1133 63.1835 78.1092 62.3554C76.1052 61.5272 74.2843 60.3134 72.7505 58.7831C71.2167 57.2529 70 55.4362 69.1699 53.4368C68.3398 51.4375 67.9127 49.2947 67.9127 47.1306L68.0397 11.244C68.0363 8.26293 66.8479 5.40489 64.7351 3.29698C62.6223 1.18907 59.7576 0.00336232 56.7696 7.1866e-06C53.7817 0.00336232 50.917 1.18907 48.8041 3.29698C46.6913 5.40489 45.5029 8.26293 45.4996 11.244V47.5742C45.5013 48.0857 45.4016 48.5925 45.2061 49.0654C45.0107 49.5384 44.7234 49.968 44.3608 50.3297C43.9983 50.6915 43.5677 50.978 43.0937 51.173C42.6197 51.368 42.1117 51.4675 41.599 51.4658C40.5644 51.4658 39.5722 51.0559 38.8407 50.326C38.1091 49.5962 37.6982 48.6063 37.6982 47.5742V23.3625C37.6948 20.3815 36.5064 17.5234 34.3936 15.4155C32.2808 13.3076 29.4161 12.122 26.4281 12.1186C23.4412 12.122 20.5771 13.3054 18.4627 15.4103C16.3482 17.5151 15.1555 20.3698 15.1454 23.3498V35.4176C15.142 36.4487 14.73 37.4366 13.9992 38.1657C13.2684 38.8948 12.2783 39.3059 11.2448 39.3092C10.2113 39.3059 9.22098 38.8948 8.49019 38.1657C7.75939 37.4366 7.34735 36.4487 7.344 35.4176V33.0345C7.344 32.0629 6.95716 31.1311 6.26853 30.444C5.5799 29.757 4.64587 29.3711 3.672 29.3711C2.69813 29.3711 1.76425 29.757 1.07562 30.444C0.38699 31.1311 0 32.0629 0 33.0345V35.4176C0.00336294 38.3986 1.1919 41.2567 3.30472 43.3646C5.41754 45.4725 8.28223 46.6582 11.2702 46.6616C14.2582 46.6582 17.1227 45.4725 19.2355 43.3646C21.3483 41.2567 22.5369 38.3986 22.5402 35.4176V23.3498C22.5402 22.3177 22.9512 21.3278 23.6827 20.598C24.4142 19.8682 25.4063 19.4582 26.4409 19.4582C27.4754 19.4582 28.4675 19.8682 29.199 20.598C29.9305 21.3278 30.3415 22.3177 30.3415 23.3498V47.5742C30.3448 50.5552 31.5334 53.4132 33.6462 55.5211C35.759 57.629 38.6236 58.8147 41.6115 58.8181C43.0931 58.8214 44.5607 58.533 45.9303 57.9693C47.2999 57.4055 48.5445 56.5776 49.5927 55.533C50.6409 54.4884 51.472 53.2477 52.0386 51.8819C52.6052 50.5162 52.896 49.0523 52.8943 47.5742V11.2566C52.8929 10.2267 53.2993 9.23808 54.0251 8.50584C54.3841 8.14039 54.8134 7.85095 55.2872 7.65492C55.7609 7.45889 56.2695 7.36033 56.7823 7.36501C57.294 7.36335 57.8009 7.46243 58.2741 7.65662C58.7473 7.85081 59.1773 8.13627 59.5397 8.49663C59.9021 8.85699 60.1896 9.28516 60.3858 9.7566C60.582 10.228 60.683 10.7335 60.683 11.244L60.5687 47.1306C60.5687 53.459 63.0877 59.5283 67.5717 64.0044C72.0558 68.4804 78.138 70.9966 84.4811 71C90.822 70.9933 96.9009 68.4755 101.382 63.9999C105.864 59.5242 108.381 53.4568 108.381 47.1306L108.304 11.244C108.308 10.214 108.72 9.22742 109.451 8.50034C110.183 7.77326 111.173 7.36501 112.205 7.36501C113.239 7.36836 114.229 7.77937 114.96 8.50847C115.69 9.23756 116.102 10.2255 116.106 11.2566V47.5869C116.116 50.5681 117.308 53.424 119.422 55.5309C121.536 57.6377 124.4 58.8241 127.388 58.8308C130.376 58.8274 133.241 57.6417 135.354 55.5338C137.467 53.4259 138.655 50.5679 138.659 47.5869V23.3625C138.659 22.3304 139.07 21.3405 139.801 20.6107C140.533 19.8809 141.525 19.4709 142.559 19.4709C143.071 19.4692 143.578 19.5683 144.051 19.7625C144.524 19.9567 144.954 20.2421 145.317 20.6025C145.679 20.9628 145.967 21.391 146.163 21.8625C146.359 22.3339 146.46 22.8394 146.46 23.3498V35.4176C146.463 38.3986 147.652 41.2567 149.765 43.3646C151.877 45.4725 154.742 46.6582 157.73 46.6616C160.72 46.6582 163.587 45.4707 165.7 43.3601C167.813 41.2495 169 38.3882 169 35.405V33.0598C169 32.0882 168.613 31.1564 167.925 30.4694C167.236 29.7824 166.302 29.3964 165.328 29.3964C164.354 29.3964 163.42 29.7824 162.732 30.4694C162.043 31.1564 161.656 32.0882 161.656 33.0598V35.4176C161.653 36.4475 161.24 37.4341 160.509 38.1612C159.778 38.8883 158.788 39.2966 157.755 39.2966C156.723 39.2966 155.733 38.8883 155.002 38.1612C154.271 37.4341 153.858 36.4475 153.855 35.4176V23.3498C153.851 20.3688 152.663 17.5108 150.55 15.4029C148.437 13.295 145.573 12.1093 142.585 12.1059C139.597 12.1093 136.732 13.295 134.619 15.4029C132.506 17.5108 131.318 20.3688 131.315 23.3498V47.5869C131.315 48.619 130.904 49.6089 130.172 50.3387C129.441 51.0685 128.448 51.4785 127.414 51.4785C126.379 51.4785 125.387 51.0685 124.656 50.3387C123.924 49.6089 123.513 48.619 123.513 47.5869V11.2566C123.513 8.27334 122.326 5.41211 120.213 3.30146C118.1 1.19081 115.233 0.00336668 112.243 7.1866e-06H112.141Z" fill="url(#paint0_linear)"></path><defs><linearGradient id="paint0_linear" x1="-0.0889407" y1="35.5063" x2="168.936" y2="35.5063" gradientUnits="userSpaceOnUse"><stop stop-color="#FF6C0E"></stop><stop offset="1" stop-color="#EB008B"></stop></linearGradient></defs></svg>